<?xml version="1.0" encoding="UTF-8" standalone="no"?>
<!-- Created with Inkscape (http://www.inkscape.org/) -->

<svg
   width="640"
   height="640"
   viewBox="0 0 640 640"
   version="1.1"
   id="svg1"
   xml:space="preserve"
   inkscape:version="1.4.3 (0d15f75042, 2025-12-25)"
   sodipodi:docname="logo.svg"
   inkscape:export-filename="logo.jpg"
   inkscape:export-xdpi="96"
   inkscape:export-ydpi="96"
   xmlns:inkscape="http://www.inkscape.org/namespaces/inkscape"
   xmlns:sodipodi="http://sodipodi.sourceforge.net/DTD/sodipodi-0.dtd"
   xmlns:xlink="http://www.w3.org/1999/xlink"
   xmlns="http://www.w3.org/2000/svg"
   xmlns:svg="http://www.w3.org/2000/svg"><sodipodi:namedview
     id="namedview1"
     pagecolor="#ffffff"
     bordercolor="#999999"
     borderopacity="1"
     inkscape:showpageshadow="2"
     inkscape:pageopacity="0"
     inkscape:pagecheckerboard="true"
     inkscape:deskcolor="#d1d1d1"
     inkscape:document-units="px"
     showguides="true"
     inkscape:zoom="0.70710678"
     inkscape:cx="201.52543"
     inkscape:cy="383.25188"
     inkscape:window-width="1856"
     inkscape:window-height="1030"
     inkscape:window-x="0"
     inkscape:window-y="0"
     inkscape:window-maximized="0"
     inkscape:current-layer="layer2" /><defs
     id="defs1"><linearGradient
       id="linearGradient21"
       inkscape:collect="always"><stop
         style="stop-color:#c026d3;stop-opacity:1;"
         offset="0"
         id="stop18" /><stop
         style="stop-color:#ffffff;stop-opacity:1;"
         offset="0.49833584"
         id="stop19" /><stop
         style="stop-color:#dae2ff;stop-opacity:1;"
         offset="0.49833584"
         id="stop20" /><stop
         style="stop-color:#0284c7;stop-opacity:1;"
         offset="1"
         id="stop21" /></linearGradient><linearGradient
       id="linearGradient15"
       inkscape:collect="always"><stop
         style="stop-color:#ff62fe;stop-opacity:1;"
         offset="0"
         id="stop12" /><stop
         style="stop-color:#ffffff;stop-opacity:1;"
         offset="0.49833584"
         id="stop13" /><stop
         style="stop-color:#dae2ff;stop-opacity:1;"
         offset="0.49833584"
         id="stop14" /><stop
         style="stop-color:#58a8ff;stop-opacity:1;"
         offset="1"
         id="stop15" /></linearGradient><linearGradient
       id="swatch5981"><stop
         style="stop-color:#171717;stop-opacity:1;"
         offset="0"
         id="stop5981" /></linearGradient><rect
       x="105"
       y="39.999999"
       width="244.49999"
       height="227.49999"
       id="rect1" /><linearGradient
       id="linearGradient1"
       inkscape:collect="always"><stop
         style="stop-color:#000000;stop-opacity:1;"
         offset="0"
         id="stop1" /><stop
         style="stop-color:#000000;stop-opacity:0;"
         offset="1"
         id="stop2" /></linearGradient><rect
       x="11.665823"
       y="373.30634"
       width="482.18735"
       height="125.73165"
       id="rect99" /><linearGradient
       id="swatch45"
       inkscape:swatch="solid"><stop
         style="stop-color:#0b0b0b;stop-opacity:1;"
         offset="0"
         id="stop45" /></linearGradient><linearGradient
       id="linearGradient39"
       inkscape:collect="always"><stop
         style="stop-color:#ffd623;stop-opacity:1;"
         offset="0"
         id="stop40" /><stop
         style="stop-color:#eb5e00;stop-opacity:1;"
         offset="1"
         id="stop39" /></linearGradient><rect
       x="209.66164"
       y="100.13348"
       width="89.363976"
       height="58.888569"
       id="rect38" /><clipPath
       clipPathUnits="userSpaceOnUse"
       id="clipPath54"><path
         id="path54"
         style="stroke-width:0.0999999;stroke-linecap:square;paint-order:markers fill stroke;stop-color:#000000"
         d="m 1691.1994,-792.32001 h 1634.8919 v 92.82806 H 1691.1994 Z" /></clipPath><clipPath
       clipPathUnits="userSpaceOnUse"
       id="clipPath24"><rect
         style="fill:none;stroke:#000000;stroke-width:0.999999;stroke-linecap:butt;stroke-linejoin:bevel;paint-order:stroke markers fill;stop-color:#000000"
         id="rect24"
         width="44.999748"
         height="77.937294"
         x="251.53429"
         y="222.73541" /></clipPath><rect
       x="209.66164"
       y="100.13348"
       width="89.363976"
       height="58.888569"
       id="rect38-7" /><radialGradient
       inkscape:collect="always"
       xlink:href="#linearGradient39"
       id="radialGradient2"
       cx="234.02687"
       cy="110.00561"
       fx="234.02687"
       fy="110.00561"
       r="40.76667"
       gradientTransform="matrix(1,0,0,0.42436675,0,74.512234)"
       gradientUnits="userSpaceOnUse" /><radialGradient
       inkscape:collect="always"
       xlink:href="#linearGradient1"
       id="radialGradient3"
       cx="122.39802"
       cy="81.057198"
       fx="122.39802"
       fy="81.057198"
       r="56.558308"
       gradientTransform="matrix(1,0,0,0.92641628,0,5.9644906)"
       gradientUnits="userSpaceOnUse" /><linearGradient
       inkscape:collect="always"
       xlink:href="#linearGradient21"
       id="linearGradient5949"
       x1="558.98218"
       y1="233.85669"
       x2="558.98218"
       y2="407.85669"
       gradientUnits="userSpaceOnUse"
       gradientTransform="matrix(1.038901,0,0,1.038901,-11.579178,-13.019126)" /><filter
       inkscape:collect="always"
       style="color-interpolation-filters:sRGB"
       id="filter5982"
       x="-0.043438759"
       y="-0.16419137"
       width="1.0868775"
       height="1.3283827"><feGaussianBlur
         inkscape:collect="always"
         stdDeviation="10.85969"
         id="feGaussianBlur5982" /></filter><linearGradient
       inkscape:collect="always"
       xlink:href="#linearGradient15"
       id="linearGradient5"
       x1="415.43359"
       y1="-237.35822"
       x2="415.43359"
       y2="123.39796"
       gradientUnits="userSpaceOnUse"
       gradientTransform="matrix(0.86117623,0,0,1.0703357,52.821203,298.44645)" /><pattern
       inkscape:collect="always"
       xlink:href="#stripes-grid-5"
       preserveAspectRatio="xMidYMid"
       id="pattern10-7"
       patternTransform="matrix(0,3,-3,0,146.85461,-40.392381)"
       x="1"
       y="0" /><pattern
       patternUnits="userSpaceOnUse"
       width="3"
       height="10"
       patternTransform="scale(2)"
       preserveAspectRatio="xMidYMid"
       id="stripes-grid-5"
       style="fill:#838383"
       x="0"
       y="0"
       inkscape:label="Stripes grid"
       inkscape:collect="always"
       inkscape:isstock="true"><rect
         style="stroke:none"
         x="0"
         y="0"
         width="2"
         height="10"
         id="rect134-4-3" /></pattern><linearGradient
       inkscape:collect="always"
       xlink:href="#linearGradient15"
       id="linearGradient11"
       x1="601.80438"
       y1="19.532246"
       x2="601.80438"
       y2="382.23343"
       gradientUnits="userSpaceOnUse"
       gradientTransform="translate(-10.452279,-0.89237454)" /><linearGradient
       inkscape:collect="always"
       xlink:href="#linearGradient15"
       id="linearGradient17"
       x1="185"
       y1="35.153843"
       x2="185"
       y2="849.5769"
       gradientUnits="userSpaceOnUse"
       gradientTransform="matrix(1,0,0,0.47272727,-5.5,29.619963)" /><linearGradient
       inkscape:collect="always"
       xlink:href="#linearGradient21"
       id="linearGradient7621"
       x1="454.83029"
       y1="-273.55807"
       x2="454.83029"
       y2="270.02475"
       gradientUnits="userSpaceOnUse"
       gradientTransform="translate(36.769553,285.67114)" /><linearGradient
       inkscape:collect="always"
       xlink:href="#linearGradient15"
       id="linearGradient8"
       x1="-135.10022"
       y1="41.034805"
       x2="-244.10893"
       y2="196.36754"
       gradientUnits="userSpaceOnUse" /></defs><g
     inkscape:groupmode="layer"
     id="layer2"
     inkscape:label="Layer 2"><g
       id="g99"
       transform="matrix(0.99999328,0,0,0.99804813,0.50286804,6.0195187)"><g
         id="g64"
         transform="matrix(2.1711823,0,0,2.1711823,49.485809,81.442173)"
         style="stroke:url(#radialGradient3);stroke-width:3.94313;stroke-dasharray:none" /></g><path
       id="rect8"
       style="font-variation-settings:'wght' 900;fill:#171717;fill-rule:evenodd;stroke:url(#linearGradient7621);stroke-width:7.953;stroke-dasharray:none;stroke-opacity:1;fill-opacity:1"
       d="m 50.483405,14.256415 539.985305,0 c 19.79979,0 35.73969,15.93989 35.73969,35.73969 l 0,469.893535 c 0,19.79979 -15.9399,35.73969 -35.73969,35.73969 l 16.36599,66.62559 -104.6322,-66.62559 -451.719095,0 c -19.79978,0 -35.73969,-15.9399 -35.73969,-35.73969 l 0,-469.893535 c 0,-19.7998 15.93991,-35.73969 35.73969,-35.73969 z"
       sodipodi:nodetypes="sssssccssss" /><g
       id="g8"
       transform="matrix(2.3283835,-1.6340026,1.6340026,2.3283835,603.09497,-302.5881)"
       style="fill:none;fill-opacity:1;stroke:url(#linearGradient8);stroke-width:10.7943;stroke-dasharray:none;stroke-opacity:1"><path
         id="path1"
         style="font-variation-settings:'wght' 900;fill:none;fill-opacity:1;fill-rule:evenodd;stroke:url(#linearGradient8);stroke-width:10.7943;stroke-dasharray:none;stroke-opacity:1"
         d="m -205.86523,12.021484 a 11.490485,11.490485 0 0 0 -11.49024,11.490235 11.490485,11.490485 0 0 0 0.64063,3.783203 c -26.80422,4.900748 -40.72461,28.93252 -40.72461,69.064453 0,45.254125 -61.64259,69.555815 51.61523,70.000005 113.257824,0.44418 51.43945,-24.42706 51.43945,-70.000005 0,-40.452005 -13.80722,-64.215311 -40.6289,-69.070313 a 11.490485,11.490485 0 0 0 0.63867,-3.777343 11.490485,11.490485 0 0 0 -11.49023,-11.490235 z" /><path
         id="path4"
         style="font-variation-settings:'wght' 900;fill:none;fill-opacity:1;fill-rule:evenodd;stroke:url(#linearGradient8);stroke-width:10.7943;stroke-dasharray:none;stroke-opacity:1"
         d="m -227.24738,184.333 a 20.682873,20.682873 0 0 0 20.35352,17.00977 20.682873,20.682873 0 0 0 20.34765,-16.96875 c -6.47061,0.23316 -13.77427,0.335 -22.00195,0.30273 -6.85648,-0.0269 -13.07225,-0.14263 -18.69922,-0.34375 z" /></g><rect
       style="font-variation-settings:'wght' 900;fill:none;fill-opacity:1"
       id="rect2"
       width="640"
       height="640"
       x="0"
       y="0" /><g
       id="g5984"
       transform="matrix(0.8620781,0,0,0.8620781,47.863809,7.498395)"><path
         id="text99-6"
         style="font-size:110.667px;font-family:Orbitron;-inkscape-font-specification:'Orbitron, @wght=900';font-variation-settings:'wght' 900;text-align:center;white-space:pre;mix-blend-mode:normal;fill:#000000;fill-opacity:1;stroke:none;stroke-width:16.0356;stroke-opacity:1;paint-order:markers stroke fill;filter:url(#filter5982)"
         d="M 15.674654,265.15278 V 423.87391 H 50.274 V 317.61756 l 90.40284,106.25635 h 35.71226 113.17562 16.61611 l 44.19702,-52.02456 44.64341,52.02456 h 35.93856 32.63704 v 0.0159 H 615.67465 V 388.62082 L 513.86682,299.3402 H 615.67465 V 265.16865 H 464.51138 v -0.0159 h -33.55156 -35.93856 l -44.19701,52.24471 -44.64342,-52.24468 H 289.56472 141.12636 V 370.70545 L 51.39001,265.15278 Z m 414.683756,13.8908 V 411.26614 L 373.37069,344.51336 Z M 176.3891,299.54133 h 113.1012 l 38.12098,44.97203 -38.11786,44.96893 H 176.3891 v -27.77622 h 91.07865 V 327.31753 H 176.3891 Z m 288.12228,1.69883 100.47169,88.04061 H 464.51138 Z"
         sodipodi:nodetypes="ccccccccccccccccccccccccccccccccccccccccccccccc"
         inkscape:label="text99-6" /><path
         id="text99"
         style="font-size:110.667px;font-family:Orbitron;-inkscape-font-specification:'Orbitron, @wght=900';font-variation-settings:'wght' 900;text-align:center;white-space:pre;fill:#171717;fill-opacity:1;stroke:url(#linearGradient5949);stroke-width:16.6594;paint-order:markers stroke fill"
         d="M 4.0043369,236.97318 V 401.86872 H 39.949632 V 291.47889 l 93.919608,110.38983 h 37.1015 117.57827 17.26249 l 45.91633,-54.04837 46.38008,54.04837 h 37.33661 33.90665 v 0.0165 H 627.34494 V 365.24425 L 521.57668,272.49053 H 627.34494 V 236.98967 H 470.30127 v -0.0165 H 435.44452 398.10791 L 352.19159,291.25023 305.8115,236.97318 H 288.54901 134.33625 V 346.63196 L 41.109055,236.97318 Z M 434.81971,251.40435 V 388.7705 l -59.2046,-69.34953 z m -263.84897,21.29513 h 117.50095 l 39.60393,46.72149 -39.60069,46.71826 H 170.97074 v -28.85674 h 94.6217 V 301.5562 h -94.6217 z m 299.33053,1.76492 104.38014,91.46547 H 470.30127 Z"
         sodipodi:nodetypes="ccccccccccccccccccccccccccccccccccccccccccccccc" /></g><g
       id="g25"
       style="display:none"><rect
         style="font-variation-settings:'wght' 900;fill:none;fill-opacity:1;fill-rule:evenodd;stroke:url(#linearGradient5);stroke-width:9.92286;stroke-dasharray:none"
         id="rect3"
         width="541.07721"
         height="375.75275"
         x="48.961437"
         y="48.961449" /><rect
         style="font-variation-settings:'wght' 900;fill:url(#linearGradient17);fill-rule:evenodd;stroke:none;stroke-width:6.33235;stroke-dasharray:none"
         id="rect5"
         width="277"
         height="52"
         x="62.5"
         y="62.238144" /><g
         id="g24"><g
           id="g10"
           transform="matrix(0.60674157,0,0,1.0621835,141.03878,24.790681)"><rect
             style="font-variation-settings:'wght' 900;mix-blend-mode:normal;fill:url(#pattern10-7);fill-rule:evenodd;stroke-width:9.21;stroke-dasharray:none"
             id="rect7-2"
             width="178"
             height="333"
             x="541.85468"
             y="33.607624" /><rect
             style="font-variation-settings:'wght' 900;mix-blend-mode:overlay;fill:url(#linearGradient11);fill-rule:evenodd;stroke-width:9.21;stroke-dasharray:none"
             id="rect7"
             width="178"
             height="333"
             x="541.85468"
             y="33.607624" /></g></g></g></g></svg>
